<?xml version="1.0" encoding="utf-8"?>
<!-- Generator: Adobe Illustrator 23.1.0, SVG Export Plug-In . SVG Version: 6.00 Build 0)  -->
<svg version="1.1" id="Layer_1" xmlns="http://www.w3.org/2000/svg" xmlns:xlink="http://www.w3.org/1999/xlink" x="0px" y="0px"
	 viewBox="0 0 64 64" style="enable-background:new 0 0 64 64;" xml:space="preserve">
<style type="text/css">
	.st0{fill-rule:evenodd;clip-rule:evenodd;fill:#CCCCCC;}
	.st1{fill-rule:evenodd;clip-rule:evenodd;fill:#FFFFFF;}
</style>
<g id="SVGRepo_bgCarrier">
</g>
<g id="SVGRepo_tracerCarrier">
</g>
<g id="SVGRepo_iconCarrier">
	<path class="st0" d="M24.1,8.9c5.2-1.2,10.6-1.2,15.8,0c7.5,1.8,13.4,7.6,15.2,15.2c1.2,5.2,1.2,10.6,0,15.8
		c-1.8,7.5-7.6,13.4-15.2,15.2c-5.2,1.2-10.6,1.2-15.8,0c-7.5-1.8-13.4-7.6-15.2-15.2c-1.2-5.2-1.2-10.6,0-15.8
		C10.7,16.5,16.6,10.6,24.1,8.9z M40.1,27.9c0.6-0.6,0.5-1.6-0.1-2.2c-0.6-0.6-1.6-0.5-2.2,0.1L30,34.2l-4-4c-0.6-0.6-1.6-0.6-2.2,0
		c-0.6,0.6-0.6,1.6,0,2.2l5.1,5.1c0.3,0.3,0.7,0.5,1.1,0.4c0.4,0,0.8-0.2,1.1-0.5L40.1,27.9z"/>
</g>
<g id="SVGRepo_iconCarrier_1_">
	<path class="st1" d="M24.8,10.6c4.8-1.1,9.8-1.1,14.7,0c7,1.6,12.4,7.1,14,14c1.1,4.8,1.1,9.8,0,14.7c-1.6,7-7.1,12.4-14,14
		c-4.8,1.1-9.8,1.1-14.7,0c-7-1.6-12.4-7.1-14-14c-1.1-4.8-1.1-9.8,0-14.7C12.4,17.6,17.8,12.2,24.8,10.6z M29.3,37.1"/>
</g>
</svg>
